<mxfile host="www.draw.io" modified="2020-01-09T21:38:02.819Z" agent="Mozilla/5.0 (Windows NT 10.0; Win64; x64) AppleWebKit/537.36 (KHTML, like Gecko) Chrome/79.0.3945.117 Safari/537.36" etag="vOwKYO7aygpgqDkLFnTG" version="12.5.1" type="github">
  <diagram id="NHfsi1unnNj1JB6y6svj" name="Page-1">
    <mxGraphModel dx="1350" dy="802" grid="1" gridSize="10" guides="1" tooltips="1" connect="1" arrows="1" fold="1" page="1" pageScale="1" pageWidth="827" pageHeight="1169" math="0" shadow="0">
      <root>
        <mxCell id="0"/>
        <mxCell id="1" parent="0"/>
        <mxCell id="5agC9p6MAGemAYDK5FoP-1" value="entidadPadre" style="shape=umlActor;verticalLabelPosition=bottom;labelBackgroundColor=#ffffff;verticalAlign=top;html=1;outlineConnect=0;" vertex="1" parent="1">
          <mxGeometry x="60" y="90" width="30" height="60" as="geometry"/>
        </mxCell>
        <mxCell id="5agC9p6MAGemAYDK5FoP-5" value="Adm que creo" style="shape=umlActor;verticalLabelPosition=bottom;labelBackgroundColor=#ffffff;verticalAlign=top;html=1;outlineConnect=0;" vertex="1" parent="1">
          <mxGeometry x="70" y="400" width="30" height="60" as="geometry"/>
        </mxCell>
        <mxCell id="5agC9p6MAGemAYDK5FoP-7" value="" style="endArrow=none;dashed=1;html=1;" edge="1" parent="1">
          <mxGeometry width="50" height="50" relative="1" as="geometry">
            <mxPoint x="10" y="330" as="sourcePoint"/>
            <mxPoint x="810" y="330" as="targetPoint"/>
          </mxGeometry>
        </mxCell>
        <mxCell id="5agC9p6MAGemAYDK5FoP-8" value="" style="endArrow=none;dashed=1;html=1;" edge="1" parent="1">
          <mxGeometry width="50" height="50" relative="1" as="geometry">
            <mxPoint x="10" y="324" as="sourcePoint"/>
            <mxPoint x="810" y="324" as="targetPoint"/>
          </mxGeometry>
        </mxCell>
        <mxCell id="5agC9p6MAGemAYDK5FoP-18" style="edgeStyle=orthogonalEdgeStyle;rounded=0;orthogonalLoop=1;jettySize=auto;html=1;exitX=0;exitY=0.3333333333333333;exitDx=0;exitDy=0;exitPerimeter=0;" edge="1" parent="1" source="5agC9p6MAGemAYDK5FoP-11">
          <mxGeometry relative="1" as="geometry">
            <mxPoint x="80" y="180" as="targetPoint"/>
          </mxGeometry>
        </mxCell>
        <mxCell id="5agC9p6MAGemAYDK5FoP-20" style="edgeStyle=orthogonalEdgeStyle;rounded=0;orthogonalLoop=1;jettySize=auto;html=1;exitX=1;exitY=0.3333333333333333;exitDx=0;exitDy=0;exitPerimeter=0;" edge="1" parent="1" source="5agC9p6MAGemAYDK5FoP-11">
          <mxGeometry relative="1" as="geometry">
            <mxPoint x="230" y="180" as="targetPoint"/>
          </mxGeometry>
        </mxCell>
        <mxCell id="5agC9p6MAGemAYDK5FoP-11" value="vendedor hijo" style="shape=umlActor;verticalLabelPosition=bottom;labelBackgroundColor=#ffffff;verticalAlign=top;html=1;outlineConnect=0;" vertex="1" parent="1">
          <mxGeometry x="200" y="190" width="30" height="60" as="geometry"/>
        </mxCell>
        <mxCell id="5agC9p6MAGemAYDK5FoP-17" style="edgeStyle=orthogonalEdgeStyle;rounded=0;orthogonalLoop=1;jettySize=auto;html=1;exitX=0;exitY=0.3333333333333333;exitDx=0;exitDy=0;exitPerimeter=0;entryX=1;entryY=0.3333333333333333;entryDx=0;entryDy=0;entryPerimeter=0;" edge="1" parent="1" source="5agC9p6MAGemAYDK5FoP-12" target="5agC9p6MAGemAYDK5FoP-1">
          <mxGeometry relative="1" as="geometry"/>
        </mxCell>
        <mxCell id="5agC9p6MAGemAYDK5FoP-12" value="Adm hijo" style="shape=umlActor;verticalLabelPosition=bottom;labelBackgroundColor=#ffffff;verticalAlign=top;html=1;outlineConnect=0;" vertex="1" parent="1">
          <mxGeometry x="200" y="90" width="30" height="60" as="geometry"/>
        </mxCell>
      </root>
    </mxGraphModel>
  </diagram>
</mxfile>
